<?xml version="1.0" encoding="UTF-8"?>
<svg version="1.1" xmlns="http://www.w3.org/2000/svg" width="512" height="512">
<path d="M0 0 C1.02987708 -0.00525911 1.02987708 -0.00525911 2.08055976 -0.01062447 C4.37418886 -0.01990572 6.66756223 -0.0150237 8.96120167 -0.01015663 C10.62511219 -0.01389455 12.28902095 -0.01849664 13.95292693 -0.02388728 C18.52020012 -0.03611529 23.08740004 -0.03585704 27.65468585 -0.03349853 C32.58259355 -0.03309031 37.51047777 -0.04413005 42.43837452 -0.05361366 C52.09156474 -0.07022389 61.74473054 -0.07572323 71.39793386 -0.07683842 C79.24568491 -0.07778895 87.09342791 -0.08189948 94.94117641 -0.08823967 C117.19539698 -0.10585266 139.44959827 -0.11507853 161.70382585 -0.11357872 C163.50327942 -0.11345885 163.50327942 -0.11345885 165.33908558 -0.11333656 C166.54018771 -0.1132548 167.74128984 -0.11317304 168.97878901 -0.1130888 C188.44098163 -0.11227604 207.90309683 -0.13141121 227.36526706 -0.1596133 C247.35321148 -0.18834848 267.34111815 -0.20215322 287.32908374 -0.20042574 C298.54902593 -0.19976203 309.76888697 -0.20524613 320.98881054 -0.22678185 C330.54255596 -0.24500202 340.09618345 -0.24933411 349.64993872 -0.235763 C354.52232268 -0.22923743 359.39448046 -0.22910134 364.26684284 -0.2464695 C368.73240024 -0.26222348 373.19755256 -0.25931287 377.66310022 -0.24190123 C379.27345904 -0.23883644 380.88384828 -0.242444 382.49417122 -0.25362138 C398.64451145 -0.35824473 410.60005063 3.42449137 422.61276722 14.56976891 C432.18691823 24.68585299 435.3294094 36.23802992 435.25044727 49.8570919 C435.25852558 51.54779877 435.25852558 51.54779877 435.26676708 53.27266133 C435.28100898 57.02789735 435.27395201 60.782779 435.26681995 64.53803062 C435.27252549 67.23922391 435.27939047 69.94039226 435.28761768 72.64157677 C435.30476711 79.2042281 435.30565371 85.76678352 435.30040478 92.32945143 C435.29635452 97.66664846 435.29781678 103.00381726 435.30315304 108.34101295 C435.30390146 109.10219308 435.30464988 109.86337321 435.30542098 110.6476194 C435.30695255 112.19422729 435.30849089 113.74083518 435.31003595 115.28744306 C435.32374712 129.77397118 435.31833312 144.26044522 435.30685074 158.7469721 C435.29692055 171.98172955 435.30985775 185.21634716 435.33378493 198.45108305 C435.35820443 212.06134146 435.36777676 225.67153482 435.3611322 239.28181469 C435.35764621 246.91461322 435.35983091 254.54730425 435.37738323 262.18008614 C435.39214097 268.67786855 435.39269429 275.17546777 435.37531232 281.67324673 C435.36682879 284.9842782 435.36677462 288.29471584 435.37996387 291.60577202 C435.39320412 295.2053129 435.38159792 298.80397489 435.36397266 302.40347862 C435.37357767 303.43560506 435.38318268 304.46773149 435.39307874 305.53113449 C435.25446721 319.35999762 429.80299119 330.13537639 420.42526722 340.06976891 C408.87667449 350.95406206 395.43490537 352.85784588 380.16306019 352.76520348 C378.49483097 352.76981979 376.82660583 352.77617759 375.15838909 352.78411245 C370.60232068 352.80072865 366.04658971 352.7925947 361.49052048 352.78016758 C356.56609783 352.77108769 351.64173172 352.78510136 346.71732044 352.79608727 C337.08149009 352.81384575 327.44578458 352.8100444 317.8099494 352.7984367 C309.97661314 352.78939214 302.14331179 352.78818281 294.30997181 352.79253197 C293.19381642 352.7931449 292.07766104 352.79375783 290.92768276 352.79438934 C288.66002193 352.79566828 286.39236111 352.79696513 284.12470031 352.7982797 C262.87581218 352.80967768 241.62699316 352.79658406 220.37811637 352.77507824 C202.1574706 352.75720798 183.93692678 352.76031231 165.71628284 352.77875328 C144.54187117 352.80017379 123.36752002 352.80857912 102.19309902 352.79630423 C99.93392023 352.79503007 97.67474144 352.79377259 95.41556263 352.79253197 C94.30409048 352.79191487 93.19261833 352.79129776 92.04746521 352.79066196 C84.22626119 352.78721261 76.40509565 352.79302846 68.58389759 352.80245018 C59.04855941 352.81368465 49.51335289 352.81059963 39.97802973 352.7893272 C35.11574624 352.77883633 30.25368205 352.77466147 25.39140034 352.78792381 C20.93527974 352.79989422 16.47958051 352.79320894 12.02349782 352.7720136 C10.41665919 352.76756717 8.80978453 352.76976946 7.20296931 352.77951676 C-8.9599895 352.8699985 -21.00977966 349.09067293 -32.94973278 337.81976891 C-42.32285518 327.87457801 -45.75980966 315.91040365 -45.65189648 302.43039513 C-45.65884201 301.3029595 -45.66578753 300.17552387 -45.67294353 299.01392353 C-45.69111017 295.26947408 -45.6809776 291.52566563 -45.67068005 287.78119469 C-45.67774376 285.08294296 -45.68635509 282.3847354 -45.69678783 279.68649864 C-45.71834676 273.13813202 -45.7183218 266.58993973 -45.71016229 260.04154934 C-45.70384285 254.71489835 -45.70501707 249.3882979 -45.71143436 244.06164742 C-45.71233602 243.30131571 -45.71323767 242.54098401 -45.71416665 241.75761195 C-45.716018 240.21261859 -45.71788056 238.66762523 -45.71975421 237.12263189 C-45.73630469 222.65890909 -45.72763724 208.19528403 -45.71076863 193.73156713 C-45.696077 180.52412223 -45.71069734 167.31690493 -45.7395388 154.10948934 C-45.76899271 140.51948793 -45.77988747 126.92959134 -45.7703566 113.33955944 C-45.76933413 111.79988028 -45.76833952 110.26020111 -45.76737309 108.72052193 C-45.7668967 107.96313732 -45.76642031 107.2057527 -45.76592948 106.42541704 C-45.76377309 101.11183101 -45.77352799 95.79834512 -45.78814411 90.48478127 C-45.80573574 83.99950969 -45.80545307 77.51452798 -45.78279246 71.02926745 C-45.77171104 67.72605999 -45.77109115 64.42346254 -45.78709316 61.12026024 C-45.87233237 42.00569523 -44.99197723 27.39899972 -31.03957653 13.10883141 C-22.31509307 4.83057373 -12.14836862 0.01405084 0 0 Z " fill="#262260" transform="translate(61.13723278045654,79.74273109436035)"/>
<path d="M0 0 C4.86108919 2.29796944 7.70203056 5.13891081 10 10 C11.10671866 18.56595854 8.8620578 25.96679058 6.11621094 33.99536133 C5.49674339 35.87063004 5.49674339 35.87063004 4.86476135 37.78378296 C3.74113701 41.18321496 2.59720849 44.57547838 1.44877529 47.96659684 C0.24530339 51.53023743 -0.94068633 55.09969328 -2.12908936 58.66838074 C-4.12538545 64.65441509 -6.1344573 70.63603686 -8.15185547 76.61499023 C-10.48014118 83.51566849 -12.79046197 90.42215235 -15.09075952 97.33220655 C-17.31072341 104.00024723 -19.54094991 110.66480643 -21.77666473 117.32758141 C-22.72524304 120.15461045 -23.67068166 122.98266018 -24.61365509 125.81156349 C-25.93128168 129.76190232 -27.26410304 133.7069508 -28.59863281 137.65161133 C-28.98633347 138.81900345 -29.37403412 139.98639557 -29.77348328 141.18916321 C-34.5352942 155.16158093 -34.5352942 155.16158093 -41 159 C-45.33926123 160.70470977 -50.51845881 160.83219361 -54.93359375 159.3515625 C-59.615884 156.99531321 -62.26177703 153.92932693 -64 149 C-64.74806843 142.69456107 -63.51231144 137.24921994 -61.46923828 131.32543945 C-61.1998431 130.50892347 -60.93044792 129.69240749 -60.65288925 128.85114861 C-59.76284735 126.16335528 -58.85415421 123.48226987 -57.9453125 120.80078125 C-57.30903508 118.8912385 -56.67406129 116.98126093 -56.04031372 115.07087708 C-54.70992562 111.0663618 -53.3723602 107.0643483 -52.02941895 103.06402588 C-50.06056519 97.19243634 -48.12109001 91.3114891 -46.19042969 85.42724609 C-43.37988835 76.86458538 -40.55460945 68.30696664 -37.71549606 59.7537365 C-36.11272209 54.92452604 -34.51370389 50.0941387 -32.92285156 45.26098633 C-31.33907295 40.44957635 -29.74653815 35.64115006 -28.14764786 30.83474159 C-27.55053508 29.03490167 -26.95647762 27.23404484 -26.36568832 25.43211937 C-25.5502251 22.94689542 -24.72353071 20.4656796 -23.89404297 17.98510742 C-23.65924728 17.26071976 -23.4244516 16.53633209 -23.18254089 15.78999329 C-21.29323521 10.20195048 -18.8252259 5.69167278 -14.4375 1.625 C-9.56643525 -0.67768515 -5.29813119 -0.77379561 0 0 Z " fill="#EC3F36" transform="translate(283,176)"/>
<path d="M0 0 C5.36787898 1.88869816 8.45991584 4.91983169 11 10 C11.14792873 11.76661038 11.2212169 13.53994064 11.25 15.3125 C11.27578125 16.25738281 11.3015625 17.20226562 11.328125 18.17578125 C10.74472556 23.19718358 7.75578802 26.49510473 4.26293945 29.96411133 C3.52239822 30.7045015 2.78185699 31.44489166 2.01887512 32.2077179 C1.22502914 32.9912413 0.43118317 33.77476471 -0.38671875 34.58203125 C-1.20372757 35.39621017 -2.02073639 36.2103891 -2.86250305 37.04924011 C-5.46616908 39.64173515 -8.07671242 42.22717883 -10.6875 44.8125 C-12.45683854 46.57180479 -14.22572415 48.33156524 -15.99414062 50.09179688 C-20.32419036 54.39982708 -24.65990347 58.70209281 -29 63 C-27.61959982 66.1125764 -26.03641283 68.19689278 -23.60766602 70.57177734 C-22.91677383 71.25283539 -22.22588165 71.93389343 -21.51405334 72.6355896 C-20.39528053 73.72476181 -20.39528053 73.72476181 -19.25390625 74.8359375 C-17.67891663 76.3905036 -16.10405067 77.945195 -14.52929688 79.5 C-12.04540716 81.94041612 -9.55911074 84.37831589 -7.07006836 86.81347656 C-4.66653088 89.16864306 -2.27234472 91.53301495 0.12109375 93.8984375 C0.86491806 94.62050385 1.60874237 95.34257019 2.37510681 96.08651733 C7.25762616 100.92202978 10.59236681 104.84084277 11.5 111.875 C11.23764999 118.09985019 7.72068989 122.39935824 3.3125 126.5 C-1.12880404 128.51115655 -5.205385 128.99400555 -10 128 C-14.28475134 125.39732139 -17.78367765 122.47254702 -21.33105469 118.94360352 C-21.82615036 118.45361877 -22.32124603 117.96363403 -22.8313446 117.45880127 C-24.45000746 115.85392549 -26.06124924 114.2418449 -27.671875 112.62890625 C-28.80172276 111.50294979 -29.93179229 110.37721582 -31.06207275 109.25169373 C-33.42223626 106.89896779 -35.77851854 104.54243558 -38.13232422 102.18334961 C-41.14560952 99.16425561 -44.17014184 96.15671425 -47.19788742 93.15213108 C-49.53142069 90.83333836 -51.857981 88.50764638 -54.1825943 86.17991447 C-55.29500001 85.06802124 -56.4097635 83.95848159 -57.52693939 82.8513813 C-59.08741662 81.30326494 -60.63802233 79.74587421 -62.18652344 78.18579102 C-63.51173004 76.86152855 -63.51173004 76.86152855 -64.8637085 75.51051331 C-68.44416229 71.30285865 -69.208821 67.73561645 -69.4609375 62.2578125 C-67.67490174 53.50926446 -59.91079254 47.49130864 -53.84765625 41.484375 C-52.74382751 40.38106569 -51.6405187 39.27723597 -50.53770447 38.1729126 C-48.23335643 35.86865392 -45.92396222 33.56961767 -43.6105957 31.27441406 C-40.65207048 28.33861458 -37.70478907 25.39182745 -34.76097965 22.44128036 C-32.48708092 20.16403439 -30.20821207 17.89181651 -27.92773247 15.62116241 C-26.83920256 14.53646873 -25.75200225 13.45043899 -24.66618538 12.36302948 C-23.14699537 10.84346695 -21.62144448 9.33058926 -20.09399414 7.81933594 C-19.22891739 6.95886658 -18.36384064 6.09839722 -17.47254944 5.21185303 C-11.77119359 0.11162693 -7.46687019 -0.87493021 0 0 Z " fill="#F8AE40" transform="translate(165,192)"/>
<path d="M0 0 C0.74765625 -0.02578125 1.4953125 -0.0515625 2.265625 -0.078125 C8.17616844 0.70251281 12.09715663 4.22428256 16.17285156 8.31640625 C16.67770081 8.81921112 17.18255005 9.32201599 17.70269775 9.84005737 C19.356015 11.49038632 20.99838563 13.15115317 22.640625 14.8125 C23.79252627 15.9674619 24.94502187 17.12183131 26.0980835 18.27563477 C28.50651991 20.68866171 30.90997719 23.10649961 33.30957031 25.52832031 C36.38507901 28.63217377 39.46925679 31.7272263 42.55673599 34.81916809 C44.93353604 37.20012399 47.30749179 39.58389761 49.68041229 41.96871948 C50.81705227 43.11105379 51.95415995 44.25292293 53.09174347 45.39431763 C54.67870566 46.98815421 56.26223482 48.58531999 57.84472656 50.18359375 C58.74596252 51.09165771 59.64719849 51.99972168 60.57574463 52.93530273 C64.14418154 56.73423604 65.06037886 58.9251195 65.125 64.0625 C65.15335937 65.07957031 65.18171875 66.09664063 65.2109375 67.14453125 C64.3158015 73.17532039 59.95485571 77.29757557 55.78540039 81.48925781 C55.30516922 81.97459991 54.82493805 82.45994202 54.33015442 82.95999146 C52.75774164 84.54618741 51.17813037 86.12496409 49.59765625 87.703125 C48.49412012 88.81055261 47.39080642 89.91820191 46.28770447 91.02606201 C43.9820563 93.33914689 41.6726038 95.64835093 39.3605957 97.95507812 C36.40203455 100.90783038 33.4550298 103.87182717 30.51097965 106.83903885 C28.23851048 109.12624976 25.95914154 111.40648569 23.67773247 113.68477631 C22.58816783 114.77485335 21.50095611 115.8672876 20.41618538 116.96213531 C18.89920125 118.4914828 17.37294555 120.01094957 15.84399414 121.52832031 C14.97891739 122.39402649 14.11384064 123.25973267 13.22254944 124.15167236 C9.06373415 127.68104853 5.27957318 128.72777957 -0.1953125 128.5625 C-5.35511094 127.77773978 -8.48893644 125.23137143 -11.625 121.1875 C-14.12820501 116.66247556 -14.67915591 113.3998709 -14.25 108.25 C-11.27723926 101.92153517 -6.941475 97.54840983 -1.984375 92.69140625 C-1.19097717 91.90225327 -0.39757935 91.11310028 0.41986084 90.30003357 C2.93958176 87.79701917 5.46956376 85.30467651 8 82.8125 C9.71683555 81.11072157 11.432989 79.40825473 13.1484375 77.70507812 C17.34109496 73.54538344 21.54221247 69.39438606 25.75 65.25 C21.49065829 60.14889115 17.01879267 55.42167756 12.26953125 50.77734375 C10.84411485 49.36943031 9.41899331 47.96121831 7.99414062 46.55273438 C5.77220006 44.36180793 3.54801556 42.17331498 1.31860352 39.98999023 C-0.85039657 37.86339345 -3.00977343 35.72739761 -5.16796875 33.58984375 C-5.8336235 32.94280991 -6.49927826 32.29577606 -7.18510437 31.62913513 C-11.26955781 27.56739868 -14.60031723 23.76179874 -15.68359375 17.90625 C-15.69334064 12.52596472 -14.88134212 9.47020841 -11.25 5.25 C-7.45888732 1.91021026 -5.0493405 0.10304777 0 0 Z " fill="#F8AE40" transform="translate(351.25,191.75)"/>
</svg>
